<svg width="17" height="18" viewBox="0 0 17 18" fill="none" xmlns="http://www.w3.org/2000/svg">
<path d="M15.1075 6.90338L15.0973 6.89315C15.0965 6.89258 15.0958 6.89181 15.0954 6.89093L8.69595 0.491322L2.29657 6.89076C2.29583 6.8915 2.29468 6.89298 2.29468 6.89298L2.28412 6.90321C1.30556 7.88726 0.684012 9.17017 0.518272 10.548C0.352533 11.9259 0.652116 13.3196 1.3694 14.5077C2.08668 15.6958 3.18049 16.61 4.47696 17.1049C5.77343 17.5999 7.19815 17.6473 8.52464 17.2395C8.63626 17.2054 8.75557 17.2054 8.8672 17.2395C10.1936 17.6472 11.6182 17.5997 12.9146 17.1047C14.211 16.6096 15.3047 15.6955 16.0219 14.5075C16.7392 13.3195 17.0388 11.9259 16.8731 10.5481C16.7074 9.17034 16.086 7.88743 15.1075 6.90338ZM4.57211 11.1234C4.54095 11.1545 4.51625 11.1916 4.4994 11.2322C4.48254 11.2729 4.47387 11.3165 4.47388 11.3605C4.48526 12.49 4.80446 13.595 5.39712 14.5565C5.41058 14.5783 5.4168 14.6039 5.4149 14.6294C5.41299 14.6549 5.40305 14.6792 5.38649 14.6988C5.36994 14.7184 5.34762 14.7322 5.32273 14.7383C5.29784 14.7444 5.27166 14.7425 5.24792 14.7329C4.80238 14.5455 4.39762 14.273 4.05629 13.9308C3.35679 13.2312 2.96355 12.2825 2.96291 11.2932C2.96227 10.3039 3.35431 9.35469 4.05291 8.6542L8.69595 4.0116L13.3388 8.6542C14.0375 9.3546 14.4296 10.3038 14.429 11.2932C14.4284 12.2825 14.0351 13.2312 13.3355 13.9308C12.9942 14.273 12.5895 14.5455 12.144 14.7329C12.1202 14.7425 12.094 14.7444 12.0691 14.7383C12.0443 14.7322 12.022 14.7183 12.0053 14.6988C11.9888 14.6792 11.9788 14.6549 11.9769 14.6293C11.975 14.6038 11.9812 14.5783 11.9947 14.5564C12.5875 13.595 12.9068 12.49 12.9184 11.3605C12.9184 11.3165 12.9097 11.2729 12.8927 11.2321C12.8758 11.1914 12.851 11.1545 12.8197 11.1233L10.6237 8.79396C10.6018 8.77569 10.5743 8.7657 10.5458 8.7657C10.5173 8.7657 10.4897 8.77569 10.4679 8.79396C10.446 8.81213 10.4313 8.8375 10.4262 8.86551C10.4211 8.89353 10.4259 8.92236 10.44 8.94715C11.2929 10.4906 10.5595 12.7076 9.33638 13.9308L9.32993 13.9373C9.16112 14.1043 8.93322 14.1979 8.69578 14.1978C8.45831 14.1977 8.23047 14.104 8.06178 13.9369L8.05584 13.9308C6.8323 12.7076 6.09925 10.4909 6.9523 8.94748C6.96633 8.9227 6.97122 8.89386 6.96611 8.86584C6.96101 8.83783 6.94625 8.81247 6.92439 8.79429C6.90253 8.77603 6.87498 8.76603 6.84651 8.76603C6.81805 8.76603 6.79048 8.77603 6.76862 8.79429L4.57211 11.1234Z" fill="#F53838"/>
</svg>
