<svg width="27" height="27" viewBox="0 0 27 27" fill="none" xmlns="http://www.w3.org/2000/svg">
<rect x="0.209106" y="0.284698" width="25.8404" height="25.8404" rx="12.9202" fill="#FFECEC"/>
<path d="M16.888 8.97647H9.3708C9.12159 8.97647 8.88259 9.07547 8.70637 9.25169C8.53015 9.42791 8.43115 9.66691 8.43115 9.91612V11.7954C8.43115 12.0446 8.53015 12.2836 8.70637 12.4599C8.88259 12.6361 9.12159 12.7351 9.3708 12.7351H16.888C17.1372 12.7351 17.3762 12.6361 17.5524 12.4599C17.7287 12.2836 17.8277 12.0446 17.8277 11.7954V9.91612C17.8277 9.66691 17.7287 9.42791 17.5524 9.25169C17.3762 9.07547 17.1372 8.97647 16.888 8.97647ZM14.5389 10.8558C14.5389 11.1153 14.3285 11.3256 14.0691 11.3256C13.8096 11.3256 13.5992 11.1153 13.5992 10.8558C13.5992 10.5963 13.8096 10.3859 14.0691 10.3859C14.3285 10.3859 14.5389 10.5963 14.5389 10.8558ZM16.4182 10.8558C16.4182 11.1153 16.2078 11.3256 15.9484 11.3256C15.6889 11.3256 15.4785 11.1153 15.4785 10.8558C15.4785 10.5963 15.6889 10.3859 15.9484 10.3859C16.2078 10.3859 16.4182 10.5963 16.4182 10.8558ZM16.888 13.6747H9.3708C9.12159 13.6747 8.88259 13.7737 8.70637 13.9499C8.53015 14.1262 8.43115 14.3652 8.43115 14.6144V16.4937C8.43115 16.7429 8.53015 16.9819 8.70637 17.1581C8.88259 17.3343 9.12159 17.4333 9.3708 17.4333H16.888C17.1372 17.4333 17.3762 17.3343 17.5524 17.1581C17.7287 16.9819 17.8277 16.7429 17.8277 16.4937V14.6144C17.8277 14.3652 17.7287 14.1262 17.5524 13.9499C17.3762 13.7737 17.1372 13.6747 16.888 13.6747ZM14.5389 15.554C14.5389 15.8135 14.3285 16.0239 14.0691 16.0239C13.8096 16.0239 13.5992 15.8135 13.5992 15.554C13.5992 15.2946 13.8096 15.0842 14.0691 15.0842C14.3285 15.0842 14.5389 15.2946 14.5389 15.554ZM16.4182 15.554C16.4182 15.8135 16.2078 16.0239 15.9484 16.0239C15.6889 16.0239 15.4785 15.8135 15.4785 15.554C15.4785 15.2946 15.6889 15.0842 15.9484 15.0842C16.2078 15.0842 16.4182 15.2946 16.4182 15.554Z" fill="#F53838"/>
</svg>
