<svg width="27" height="27" viewBox="0 0 27 27" fill="none" xmlns="http://www.w3.org/2000/svg">
<rect x="0.285461" y="0.284698" width="25.8404" height="25.8404" rx="12.9202" fill="#FFECEC"/>
<path d="M16.4944 11.7954C16.4944 11.3635 16.4093 10.9359 16.2441 10.5369C16.0788 10.1379 15.8365 9.77531 15.5311 9.46991C15.2257 9.16452 14.8632 8.92227 14.4642 8.757C14.0652 8.59172 13.6375 8.50665 13.2056 8.50665C12.7737 8.50665 12.3461 8.59172 11.9471 8.757C11.548 8.92227 11.1855 9.16452 10.8801 9.46991C10.5747 9.77531 10.3325 10.1379 10.1672 10.5369C10.0019 10.9359 9.91684 11.3635 9.91684 11.7954C9.91684 12.4471 10.1095 13.0532 10.436 13.5643H10.4322C11.541 15.3003 13.2056 17.9032 13.2056 17.9032L15.979 13.5643H15.9757C16.3142 13.0364 16.4942 12.4225 16.4944 11.7954ZM13.2056 13.2049C12.8318 13.2049 12.4733 13.0564 12.209 12.7921C11.9446 12.5278 11.7961 12.1692 11.7961 11.7954C11.7961 11.4216 11.9446 11.0631 12.209 10.7988C12.4733 10.5345 12.8318 10.386 13.2056 10.386C13.5794 10.386 13.9379 10.5345 14.2023 10.7988C14.4666 11.0631 14.6151 11.4216 14.6151 11.7954C14.6151 12.1692 14.4666 12.5278 14.2023 12.7921C13.9379 13.0564 13.5794 13.2049 13.2056 13.2049Z" fill="#F53838"/>
</svg>
