<svg width="27" height="27" viewBox="0 0 27 27" fill="none" xmlns="http://www.w3.org/2000/svg">
<rect x="0.22821" y="0.284698" width="25.8404" height="25.8404" rx="12.9202" fill="#FFECEC"/>
<path fill-rule="evenodd" clip-rule="evenodd" d="M13.1483 12.6411C13.5969 12.6411 14.0271 12.4629 14.3443 12.1457C14.6615 11.8285 14.8397 11.3983 14.8397 10.9497C14.8397 10.5012 14.6615 10.0709 14.3443 9.75375C14.0271 9.43656 13.5969 9.25836 13.1483 9.25836C12.6997 9.25836 12.2695 9.43656 11.9523 9.75375C11.6351 10.0709 11.4569 10.5012 11.4569 10.9497C11.4569 11.3983 11.6351 11.8285 11.9523 12.1457C12.2695 12.4629 12.6997 12.6411 13.1483 12.6411ZM10.7516 17.7152C9.89565 17.7152 9.17465 16.9957 9.50219 16.2049C9.70053 15.7261 9.99123 15.2911 10.3577 14.9246C10.7242 14.5581 11.1592 14.2674 11.638 14.0691C12.1169 13.8708 12.6301 13.7687 13.1483 13.7687C13.6666 13.7687 14.1798 13.8708 14.6586 14.0691C15.1374 14.2674 15.5725 14.5581 15.9389 14.9246C16.3054 15.2911 16.5961 15.7261 16.7944 16.2049C17.122 16.9957 16.401 17.7152 15.5451 17.7152H10.7516Z" fill="#F53838"/>
</svg>
